HIERARCHY
ROOT pelvis
{
	OFFSET 0.000000 0.720141 -0.000000
	CHANNELS 6 Xposition Yposition Zposition Xrotation Yrotation Zrotation
	JOINT spine
	{
		OFFSET 0.000000 0.000000 0.000000
		CHANNELS 6 Xposition Yposition Zposition Xrotation Yrotation Zrotation
		JOINT spine.001
		{
			OFFSET 0.000000 0.211185 0.011068
			CHANNELS 3 Xrotation Yrotation Zrotation
			JOINT neck
			{
				OFFSET 0.000000 0.209898 -0.025772
				CHANNELS 6 Xposition Yposition Zposition Xrotation Yrotation Zrotation
				JOINT face
				{
					OFFSET 0.000000 0.159171 -0.002778
					CHANNELS 6 Xposition Yposition Zposition Xrotation Yrotation Zrotation
					End Site
					{
						OFFSET 0.000000 -0.007013 0.013781
					}
				}
			}
			JOINT shoulder.L
			{
				OFFSET 0.000000 0.209898 -0.025772
				CHANNELS 6 Xposition Yposition Zposition Yrotation Xrotation Zrotation
				JOINT upper_arm.L
				{
					OFFSET 0.140142 0.000000 0.000000
					CHANNELS 6 Xposition Yposition Zposition Xrotation Yrotation Zrotation
					JOINT forearm.L
					{
						OFFSET 0.221691 0.000841 -0.000101
						CHANNELS 6 Xposition Yposition Zposition Xrotation Yrotation Zrotation
						End Site
						{
							OFFSET 0.203615 -0.001158 0.003461
						}
					}
				}
			}
			JOINT shoulder.R
			{
				OFFSET 0.000000 0.209898 -0.025772
				CHANNELS 6 Xposition Yposition Zposition Yrotation Xrotation Zrotation
				JOINT upper_arm.R
				{
					OFFSET -0.140142 0.000000 0.000000
					CHANNELS 6 Xposition Yposition Zposition Xrotation Yrotation Zrotation
					JOINT forearm.R
					{
						OFFSET -0.218508 0.000841 -0.000101
						CHANNELS 6 Xposition Yposition Zposition Xrotation Yrotation Zrotation
						End Site
						{
							OFFSET -0.190672 -0.001156 0.003235
						}
					}
				}
			}
		}
	}
	JOINT pelvis.L
	{
		OFFSET 0.000000 0.000000 0.000000
		CHANNELS 6 Xposition Yposition Zposition Yrotation Xrotation Zrotation
		End Site
		{
			OFFSET 0.092302 0.000000 0.000000
		}
	}
	JOINT pelvis.R
	{
		OFFSET 0.000000 0.000000 0.000000
		CHANNELS 6 Xposition Yposition Zposition Yrotation Xrotation Zrotation
		End Site
		{
			OFFSET -0.092302 0.000000 0.000000
		}
	}
	JOINT thigh.L
	{
		OFFSET 0.092302 0.000000 0.000000
		CHANNELS 6 Xposition Yposition Zposition Xrotation Yrotation Zrotation
		JOINT shin.L
		{
			OFFSET 0.018633 -0.355539 0.000000
			CHANNELS 6 Xposition Yposition Zposition Xrotation Yrotation Zrotation
			JOINT foot.L
			{
				OFFSET 0.016000 -0.305289 0.000000
				CHANNELS 6 Xposition Yposition Zposition Xrotation Yrotation Zrotation
				End Site
				{
					OFFSET 0.012202 -0.052243 0.124413
				}
			}
		}
	}
	JOINT thigh.R
	{
		OFFSET -0.092302 0.000000 0.000000
		CHANNELS 6 Xposition Yposition Zposition Xrotation Yrotation Zrotation
		JOINT shin.R
		{
			OFFSET -0.018742 -0.357619 0.000000
			CHANNELS 6 Xposition Yposition Zposition Xrotation Yrotation Zrotation
			JOINT foot.R
			{
				OFFSET -0.016515 -0.315127 0.000000
				CHANNELS 6 Xposition Yposition Zposition Xrotation Yrotation Zrotation
				End Site
				{
					OFFSET -0.011971 -0.051255 0.122060
				}
			}
		}
	}
}
MOTION
Frames: 5
Frame Time: 0.041667
-0.044896 -0.016090 -0.007034 0.000001 -7.801284 0.000004 0.000000 -0.000000 0.000000 -7.606280 0.004231 -0.035432 10.005034 -2.179115 0.267695 -0.000000 0.209898 -0.025772 13.325049 3.050304 6.228184 0.000000 0.159170 -0.002778 2.016997 -0.000002 0.000002 -0.000000 0.209898 -0.025772 0.226992 -0.003665 1.849074 0.140142 -0.000000 0.000000 -8.240063 -9.760803 -80.437751 0.221691 0.000841 -0.000101 -0.233080 -4.400675 -9.675747 -0.000000 0.209898 -0.025772 0.220415 -0.003456 1.795560 -0.140142 -0.000000 0.000000 -2.112750 2.527676 79.042856 -0.218508 0.000841 -0.000101 -0.555591 13.115035 4.839719 0.000000 0.000000 0.000000 -0.000067 -0.000000 0.838323 0.000000 0.000000 0.000000 -0.000000 -0.000000 0.838323 0.092292 0.001350 -0.000000 5.459935 0.141950 -3.023653 0.018633 -0.355539 0.000000 -1.234948 -0.153781 8.196875 0.016000 -0.305289 0.000000 -3.999526 0.702696 0.722172 -0.092292 -0.001350 -0.000000 5.731017 0.033509 6.669245 -0.018742 -0.357619 0.000000 -6.979409 0.511590 -2.374235 -0.016515 -0.315127 0.000000 -4.504465 8.075301 3.350282 
-0.046050 -0.013626 -0.005995 0.000001 -7.218599 0.000004 -0.000000 -0.000000 0.000000 -7.773766 0.031494 -0.260737 10.008340 -2.797172 0.343725 -0.000000 0.209898 -0.025772 13.762317 1.626200 6.539437 -0.000000 0.159171 -0.002778 0.665473 0.000008 -0.000001 -0.000000 0.209898 -0.025772 0.226322 -0.003642 1.843698 0.140142 0.000000 -0.000000 -5.709525 -6.729725 -80.602120 0.221691 0.000841 -0.000101 -0.742907 -10.287295 -9.330497 -0.000000 0.209898 -0.025772 0.219771 -0.003434 1.790236 -0.140142 -0.000000 0.000000 -2.008210 2.377543 79.560550 -0.218508 0.000841 -0.000101 -0.462632 12.950865 3.963761 -0.000000 -0.000000 0.000000 0.000079 -0.000001 0.710479 -0.000000 0.000000 0.000000 -0.000002 0.000000 0.710479 0.092294 0.001145 0.000000 5.448787 0.150093 -2.846612 0.018633 -0.355539 0.000000 -1.568823 -0.194409 8.128016 0.016000 -0.305289 0.000000 -4.274413 0.532914 0.673323 -0.092294 -0.001144 -0.000000 5.945043 0.043320 6.834153 -0.018742 -0.357619 0.000000 -7.385070 0.558671 -2.640329 -0.016515 -0.315127 0.000000 -3.883571 8.445013 3.533216 
-0.047072 -0.012695 -0.005794 0.000000 -6.836865 0.000003 -0.000000 -0.000000 0.000000 -7.804572 0.044275 -0.365745 10.010062 -3.070641 0.377393 0.000000 0.209898 -0.025772 14.090784 0.004436 6.617683 -0.000000 0.159170 -0.002778 -0.402622 0.000003 -0.000004 0.000000 0.209898 -0.025772 0.216802 -0.003344 1.766721 0.140142 0.000000 -0.000000 -3.627437 -4.254357 -80.639092 0.221691 0.000841 -0.000101 -1.232173 -15.313912 -9.694152 0.000000 0.209898 -0.025772 0.210268 -0.003145 1.713156 -0.140142 -0.000000 0.000000 -1.314524 1.526410 79.964788 -0.218508 0.000841 -0.000101 -0.468018 14.389928 3.469354 -0.000000 -0.000000 0.000000 0.000061 -0.000001 0.603359 0.000000 0.000000 0.000000 -0.000000 -0.000000 0.603359 0.092296 0.000972 -0.000000 5.373869 0.154557 -2.707544 0.018633 -0.355539 0.000000 -1.753631 -0.216778 8.093297 0.016000 -0.305289 0.000000 -4.505661 0.460705 0.664412 -0.092296 -0.000972 -0.000000 6.013573 0.051023 6.971255 -0.018742 -0.357619 0.000000 -7.574353 0.585835 -2.832667 -0.016515 -0.315127 0.000000 -3.569369 8.780285 3.693036 
-0.048061 -0.012976 -0.006395 0.000000 -6.905021 0.000003 -0.000000 -0.000000 0.000000 -7.739400 0.040562 -0.336707 10.009876 -3.025055 0.371782 -0.000000 0.209898 -0.025772 14.419547 -1.585451 6.372558 0.000000 0.159171 -0.002778 -1.156797 -0.000004 0.000002 -0.000000 0.209898 -0.025772 0.196267 -0.002736 1.598265 0.140142 0.000000 -0.000000 -2.974443 -3.480224 -80.622276 0.221691 0.000841 -0.000101 -1.448944 -17.360447 -9.889842 -0.000000 0.209898 -0.025772 0.189671 -0.002555 1.544751 -0.140142 0.000000 -0.000000 -0.262007 0.260659 80.089459 -0.218508 0.000841 -0.000101 -0.585891 17.084021 3.600968 -0.000000 0.000000 -0.000000 -0.000021 0.000000 0.533094 -0.000000 0.000000 -0.000000 -0.000000 0.000000 0.533057 0.092298 0.000859 -0.000000 5.259254 0.155005 -2.626034 0.018633 -0.355539 0.000000 -1.759423 -0.217628 8.101648 0.016000 -0.305289 0.000000 -4.559821 0.698724 0.781263 -0.092298 -0.000859 -0.000000 5.929003 0.054880 7.059609 -0.018742 -0.357619 0.000000 -7.584936 0.591429 -2.904208 -0.016515 -0.315127 0.000000 -3.590160 9.156931 3.868583 
-0.049357 -0.013155 -0.007028 0.000001 -7.367450 0.000004 -0.000000 -0.000000 -0.000000 -7.709130 0.032739 -0.272344 10.009116 -2.929214 0.359978 -0.000000 0.209898 -0.025772 14.851937 -2.860565 5.949588 0.000000 0.159171 -0.002778 -1.725126 0.000007 -0.000012 0.000000 0.209898 -0.025772 0.171476 -0.002088 1.396540 0.140141 -0.000000 0.000000 -3.446291 -4.054351 -80.432383 0.221691 0.000841 -0.000101 -1.390527 -16.776521 -9.866535 -0.000000 0.209898 -0.025772 0.164878 -0.001932 1.343124 -0.140142 -0.000000 0.000000 0.271280 -0.380341 79.826866 -0.218508 0.000841 -0.000101 -0.767332 19.194879 4.254348 -0.000000 0.000000 0.000000 0.000001 -0.000000 0.488471 -0.000000 0.000000 0.000000 -0.000002 0.000000 0.488471 0.092298 0.000787 0.000000 5.171469 0.154999 -2.568768 0.018633 -0.355539 0.000000 -1.670632 -0.206893 8.118882 0.016000 -0.305289 0.000000 -4.360145 1.230860 1.006574 -0.092298 -0.000787 -0.000000 5.827793 0.058560 7.150339 -0.018742 -0.357619 0.000000 -7.623876 0.595145 -2.914230 -0.016515 -0.315127 0.000000 -3.758327 9.564034 4.058784 
